{
    "asset" : {
        "generator" : "Khronos glTF Blender I/O v1.2.75",
        "version" : "2.0"
    },
    "scene" : 0,
    "scenes" : [
        {
            "name" : "Scene",
            "nodes" : [
                0,
                1,
                2,
                3
            ]
        }
    ],
    "nodes" : [
        {
            "name" : "Light",
            "rotation" : [
                0.16907575726509094,
                0.7558803558349609,
                -0.27217137813568115,
                0.570947527885437
            ],
            "translation" : [
                4.076245307922363,
                5.903861999511719,
                -1.0054539442062378
            ]
        },
        {
            "name" : "Camera",
            "rotation" : [
                0.483536034822464,
                0.33687159419059753,
                -0.20870360732078552,
                0.7804827094078064
            ],
            "translation" : [
                7.358891487121582,
                4.958309173583984,
                6.925790786743164
            ]
        },
        {
            "name" : "Sun",
            "rotation" : [
                -0.27651089429855347,
                -0.18171828985214233,
                -0.20138385891914368,
                0.9219353199005127
            ]
        },
        {
            "mesh" : 0,
            "name" : "Plant_Export.002",
            "rotation" : [
                0.7071068286895752,
                0,
                0,
                0.7071067094802856
            ],
            "translation" : [
                0,
                0.5197359323501587,
                -0.008188752457499504
            ]
        }
    ],
    "materials" : [
        {
            "doubleSided" : true,
            "emissiveFactor" : [
                0,
                0,
                0
            ],
            "name" : "Material.003",
            "pbrMetallicRoughness" : {
                "baseColorTexture" : {
                    "index" : 0,
                    "texCoord" : 0
                },
                "metallicFactor" : 0,
                "metallicRoughnessTexture" : {
                    "index" : 1,
                    "texCoord" : 0
                }
            }
        }
    ],
    "meshes" : [
        {
            "name" : "Plant_Export.003",
            "primitives" : [
                {
                    "attributes" : {
                        "POSITION" : 0,
                        "NORMAL" : 1,
                        "TEXCOORD_0" : 2
                    },
                    "indices" : 3,
                    "material" : 0
                }
            ]
        }
    ],
    "textures" : [
        {
            "source" : 0
        },
        {
            "source" : 1
        }
    ],
    "images" : [
        {
            "mimeType" : "image/png",
            "name" : "plant 1 color 1024",
            "uri" : "Textures/plant%201%20color%201024.png"
        },
        {
            "mimeType" : "image/png",
            "name" : "plant 1 roughness 1024",
            "uri" : "Textures/plant%201%20roughness%201024.png"
        }
    ],
    "accessors" : [
        {
            "bufferView" : 0,
            "componentType" : 5126,
            "count" : 40268,
            "max" : [
                0.7316809892654419,
                0.5828500390052795,
                0.5458599925041199
            ],
            "min" : [
                -0.9196241497993469,
                -0.5715742111206055,
                -2.644885778427124
            ],
            "type" : "VEC3"
        },
        {
            "bufferView" : 1,
            "componentType" : 5126,
            "count" : 40268,
            "type" : "VEC3"
        },
        {
            "bufferView" : 2,
            "componentType" : 5126,
            "count" : 40268,
            "type" : "VEC2"
        },
        {
            "bufferView" : 3,
            "componentType" : 5123,
            "count" : 167211,
            "type" : "SCALAR"
        }
    ],
    "bufferViews" : [
        {
            "buffer" : 0,
            "byteLength" : 483216,
            "byteOffset" : 0
        },
        {
            "buffer" : 0,
            "byteLength" : 483216,
            "byteOffset" : 483216
        },
        {
            "buffer" : 0,
            "byteLength" : 322144,
            "byteOffset" : 966432
        },
        {
            "buffer" : 0,
            "byteLength" : 334422,
            "byteOffset" : 1288576
        }
    ],
    "buffers" : [
        {
            "byteLength" : 1623000,
            "uri" : "plant 1 export.bin"
        }
    ]
}
